<svg xmlns="http://www.w3.org/2000/svg" 
xmlns:xlink="http://www.w3.org/1999/xlink" 
preserveAspectRatio="xMidYMid meet" 
version="1.0" 
viewBox="38.3 22.9 1761.8 1844.7" 
zoomAndPan="magnify" 
style="fill: rgb(255, 180, 69);" 
role="img" aria-label="Cat Icon">
<g id="__id14_scik73ok94j">
<path d="m697.86 27.777c0.0175-5e-3 0.0351-0.01 0.0527-0.015 17.416-4.9099 34.619 4.1469 49.337 12.488 9.4044 5.3293 18.395 11.346 27.345 17.395 0.3329 0.225 0.6657 0.4502 0.9985 0.6753 27.87 19.36 55.08 39.65 82.9 59.09 45.202 31.697 90.583 63.138 135.81 94.802 44.092 30.87 88.161 61.793 131.52 93.699 43.262 31.838 85.993 64.426 127.65 98.336 40.769 33.184 80.24 67.982 118.34 104.19 37.112 35.27 72.894 71.932 107.38 109.77 34.497 37.844 67.7 76.862 99.669 116.86 10.228 12.798 20.318 25.704 30.307 38.69 48.45 63.34 93.29 129.44 134.18 197.9 10.79 18.02 21.21 36.26 31.27 54.7 7.92 14.9 15.99 29.77 22.44 45.39 1.4199 3.5699 3.0499 7.26 2.7 11.22-3.86-1.3199-6.38-4.7-9.0601-7.5399-11.21-12.92-21.28-26.76-31.45-40.49-47.64-65.29-92.6-132.48-140.53-197.57-31.263-42.669-63.532-84.931-98.324-124.79-33.638-38.534-69.221-75.371-106.56-110.33-38.89-36.41-79.816-70.64-121.39-103.92-15.706-12.574-31.539-24.99-47.458-37.292-43.057-33.242-86.419-66.085-130.24-98.282-44.737-32.871-89.474-65.742-134.21-98.612-20.563-15.422-41.714-30.014-62.441-45.256-28.98-21.08-57.95-42.19-87.41-62.59-7.98-5.42-16.01-10.77-24.46-15.43-2.34-1.35-4.99-2.02-7.67-2.18 0.17 4.66 3.14 8.44 5.39 12.31 8.05 12.51 16.78 24.57 24.97 36.99 22.83 34.19 43.6 70.2 56.46 109.42 9.88 29.95 16.41 61.93 12.09 93.51-3.24 24.64-17.7 47.42-38.45 61.03-3.22 2.05-6.27 4.36-9.58 6.25-4.74 2.18-8.72 5.92-13.94 7.01-3.27 1.7-6.54 3.46-10.1 4.47-1.01 0.31-2 0.64-2.98 0.98-1 0.31-1.99 0.64-2.97 0.98-1.01 0.32-2.01 0.65-3 1-1.01 0.33-2.02 0.65-3.01 0.98-1.04 0.33-2.04 0.72-3.01 1.18-0.47 0.07-1.39 0.2-1.86 0.27-2.15 1.34-4.55 2.54-7.17 2.22-4.65 2.31-9.85 3.25-14.93 4.06-4.85 1.59-9.93 2.55-15 3.02-1.5699 0.74-3.3 0.82-4.98 0.97-8.09 1.66-16.32 2.19-24.43 3.81-4.38-0.23-8.52 1.51-12.93 1.03-3.22 1.15-6.62 1.21-9.99 1.12-3.43 1.07-7.02 1.14-10.57 0.78-2.51 1.58-5.64 1.06-8.44 1.57-40.81 3.91-81.78 9.59-120.8 22.63-16.831 5.5421-33.329 12.069-49.494 19.32-8.0844 3.6261-16.087 7.4339-24.014 11.392-33.313 16.635-65.23 36.264-95.432 58.027-14.686 10.572-28.965 21.712-42.802 33.371-13.942 11.746-26.881 24.618-40.597 36.62-27.26 26.13-52.82 54.03-76.31 83.6-11.78 14.77-22.95 30.03-33.01 46.03-10.1 16.32-18.92 33.65-24.04 52.22-4.38 15.93-6.08 32.7-3.91 49.12 3.2 26.1 11.81 51.14 16.13 77.04 4.87 27.51 4.65 56.29-3.75 83.11-7.36 24.22-18.49 47.11-30.66 69.25-11.12 20.3-23.39 39.94-35.64 59.57-8.55 13.89-17.51 27.6-24.6 42.31-3.05 7.11-6.83 14.68-5.29 22.64 1.01 2.58 3.45 4.5399 6.15 5.13 7.52 1.9099 15.28 0.4299 22.88-0.0601 15.28-1.49 30.57-4.46 45.98-3.2999 6.84 0.5499 14.45 3.13 17.7 9.7 3.53 7.53 1.57 16.15-0.53 23.81-4.56 14.63-12.18 28.03-19.39 41.47-10.78 19.56-22.33 38.7-32.56 58.56-4.23 8.38-8.29 16.92-10.98 25.94-2.57 8.91-3.33 18.75 0.3 27.49 4.02 9.5499 11.31 17.19 18.67 24.28 14.2 13.1 29.94 24.4 46.06 35 34.62 22.45 71.16 41.94 108.94 58.5 41.29 17.77 84.81 31.97 129.9 35.17 49.39 3.8401 98.81-6.12 145.5-21.74 19.91-6.45 39.23-14.54 58.64-22.34-22.31-29.07-45.85-57.2-67.86-86.49-3.39-5.09-7.92-9.78-9.3-15.89 4.05 0.41 7.23 3.17 10.46 5.39 12.09 9.09 23.23 19.38 34.12 29.87 18.9 18.34 37.03 37.48 54.28 57.38 0.4464 0.515 12.11-5.6307 13.342-6.2174 4.5473-2.1659 9.0769-4.3689 13.593-6.5999 18.325-9.0532 36.538-18.418 54.153-28.775 8.8981-5.2314 18.712-9.9819 26.973-16.177-0.5137 0.3212-7.2865-5.0406-8.1144-5.6084-2.8247-1.9369-5.6565-3.8635-8.4941-5.7815-5.676-3.8365-11.375-7.6385-17.088-11.42-11.301-7.4812-22.683-14.871-34.075-22.238-11.406-7.3749-22.811-14.752-34.216-22.128-12.646-8.1783-25.959-16.239-38.047-25.368-3.5461-2.6777-8.2584-5.4868-10.206-9.6563 7.77 0.9099 14.71 4.9199 21.85 7.87 24.356 11.34 48.335 23.484 71.94 36.312 23.815 12.943 47.275 26.642 70.458 40.684 2.1306 1.2904 4.2937 2.5809 6.2313 4.1537 15.14-8.7599 29.13-19.42 44.26-28.22 2.24-1.36 4.69-2.4299 7.37-2.38-0.5 4.01-3.34 7.0901-5.59 10.28-6.5 8.3101-13.71 16.06-21.19 23.51-2.48 2.5598-5.2598 4.8699-7.3595 7.7994 1.033-1.4282 26.596 17.151 28.253 18.282 12.523 8.5483 24.734 17.554 37.003 26.46 18.161 13.183 36.215 26.647 53.574 40.878 20.59 16.881 41.024 33.918 60.833 51.718 19.502 17.524 38.528 35.601 57.259 53.948 19.086 18.695 37.814 37.757 56.169 57.171 18.283 19.338 36.439 38.786 53.966 58.816 7.7449 8.8511 15.388 17.792 22.926 26.819 3.587 4.2954 7.1409 8.6122 10.622 12.993 1.7666 2.2231 3.5189 4.4574 5.2551 6.7043 0.9095 1.177 1.8147 2.3575 2.7152 3.5415 0.4727 0.6216 2.4442 2.4989 2.4442 3.2386 2.99 4.6 7.1799 8.85 8.12 14.45-6.1001-2.23-10.67-7.11-15.7-11.02-28.3-24.58-55.24-50.65-82.68-76.17-54.54-51.22-109.16-102.4-165.78-151.31-49.3-42.57-100.42-83.07-153.53-120.79-32.69 27.08-69.04 49.74-107.79 67.08 49.1 59.72 90.51 125.35 127.99 192.86 15.4 28.18 30.61 56.55 43.39 86.04 2.15 5.4399 4.82 10.82 5.59 16.69-0.6 1.38-1.94-0.3999-2.61-0.7899-5.05-5.41-9.14-11.62-13.41-17.63-21.06-30.78-41.12-62.22-61.68-93.33-39.14-59.28-79.19-118.02-122.7-174.19-39.52 15.66-80.74 26.81-122.41 35.04-26.56 5.1299-53.39 8.97-80.38 10.8-43.88 3.1-89.17 0.55-130.53-15.6-20.78-8.0601-39.92-19.88-57.28-33.79-14.46-11.14-27.18-24.41-42.14-34.92-12.6-8.9501-27.64-13.17-41.65-19.32-18.83-7.87-36.39-18.82-51.68-32.33-15.29-13.03-28.63-28.14-41.26-43.72-11.78-14.82-22.66-30.38-32.12-46.79-9.32-16.13-17.68-33.27-20.92-51.76-2.18-11.71-0.84-23.87 3.08-35.06 6.11-16.98 16.7-31.77 26.24-46.93 21.5-32.47 38.62-67.67 52.91-103.84 9.5-24.01 17.63-48.58 23.84-73.64 6.32-25.3 9.99-51.24 11.19-77.27 2.12-36.72 0.6-73.67 5.45-110.21 4.6884-37.548 16.049-74.388 33.578-107.93 17.079-30.531 37.872-58.308 62.359-83.297 13.46-13.744 27.773-26.632 42.543-38.948 60.03-49.83 125.87-91.91 190.34-135.62 27.25-18.74 54.97-37.23 78.8-60.32 5.26-5.48 10.32-11.14 15.04-17.09l-1.66-0.03c0.43-0.04 1.29-0.13 1.72-0.17 19.06-24.85 27.33-55.8 33.02-86.08-7.48-4.92-14.28-10.83-22.02-15.36-17.13-10.026-33.839-20.672-51.214-30.307-35.176-19.505-71.391-37.216-107.61-54.791-27.57-13.377-55.105-26.862-83.457-38.518-8.9823-3.693-29.447-13.107-34.197 0.6865-3.29 9.62-2.03 19.95-1.77 29.92 0.84 7.64 1.97 15.26 3.15 22.86 1.8451 10.53 4.1069 20.986 6.6831 31.361 1.3844 5.5753 2.3875 11.241 3.911 16.783 10.322 37.545 26.075 73.543 44.509 107.78 8.1126 15.066 16.613 29.937 25.522 44.548 1.0149 1.6794 2.0334 3.3567 3.0549 5.032 3.22 5.61 6.97 10.96 9.65 16.86-0.05 0.49-0.14 1.46-0.19 1.95 0.077-0.7544-4.035-4.2379-4.6703-4.9546-1.724-1.9446-3.3459-3.9731-5.0137-5.9634-3.4503-4.1174-6.3456-8.827-9.3884-13.299-6.5935-9.69-13.948-19.249-19.698-29.417-5.9085-10.449-12.124-20.704-17.849-31.264-4.751-8.7639-9.477-17.768-14.082-26.696-4.6876-9.0876-9.789-18.12-13.989-27.444-0.6316-1.402-1.2051-2.8353-1.8776-4.2284-2.1924-4.5764-4.3759-9.1573-6.5464-13.744-4.3405-9.1726-8.6297-18.37-12.837-27.604-8.4137-18.469-16.499-37.092-24.002-55.951-0.1127-0.2834-0.2253-0.5668-0.3378-0.8503-2.3773-5.992-4.711-12.001-7.0008-18.027-2.3711-6.2401-4.5088-12.543-6.6285-18.877-3.53-11.95-7.66-24.17-6.65-36.81 0.3-5.47 3.56-10.92 8.8501-12.83 7.4383-2.7598 15.931-2.0891 23.596-0.6994 18.66 3.3829 37.435 8.2113 55.536 14.344 9.0598 3.0693 17.876 7.0352 26.924 9.9865 9.6745 3.1556 19.298 6.5546 28.847 10.079 0.575 0.2122 1.1496 0.4254 1.7239 0.6395 18.914 7.0543 37.544 14.451 56.21 22.185 37.879 15.695 75.458 32.056 113.08 48.406 16.599 7.2137 33.282 14.23 49.853 21.51 6.2-45.53 10.9-91.25 16.88-136.81 2.3504-17.907 5.895-35.664 8.2465-53.549 1.3207-10.046 3.7577-19.906 6.3883-29.677 2.5121-9.331 4.6714-18.688 8.5718-27.547 4.4754-10.163 9.8718-20.526 18.748-27.491 2.9012-2.276 6.4-4.853 9.9816-5.8783z" style="fill: inherit;"></path></g><g id="__id15_scik73ok94j"><path d="m441.96 886.41c11.743-0.3667 23.499-0.3237 35.242 0.1241 19.539 0.7452 39.089 2.4725 58.47 5.0455 9.8591 1.3088 19.686 2.8559 29.471 4.6403 4.9919 0.9104 9.9726 1.8826 14.94 2.9164 2.3845 0.4962 4.7662 1.0067 7.1447 1.5313 1.4905 0.3288 5.7626 2.1245 7.1259 1.6165-11.909 4.3986-26.644 7.6642-35.12 17.89-8.12 9.87-12.65 22.01-19.21 32.87-10.19 17.9-26.04 31.78-43 43.09-14.18 9.36-29.43 17.21-45.56 22.61-12.47 4.04-25.77 6.77-38.9 5.08-9.73-1.15-18.97-5.56-26.05-12.31-9.22-8.44-15.75-19.23-22.22-29.78-10.12-16.55-20.47-33.07-33.17-47.78-3.43-4.34-7.37-8.38-9.81-13.4-7.4639-15.987 25.575-22.039 35.484-24.098 28.031-5.8274 56.555-9.1524 85.162-10.046z" style="fill: inherit;"></path></g><g id="__id16_scik73ok94j"><path d="m629.86 1326.7c3.36-2.11 7.41-0.49 11.04-0.12 26.174 5.0255 51.925 12.765 77.12 21.384 25.172 8.6115 49.86 18.59 74.051 29.654 16.566 7.5767 33.133 15.491 49.016 24.426 22.922 12.403 45.299 25.815 67.044 40.182 22.37 14.78 44.093 30.564 65.395 46.839 11.596 8.8601 23.128 17.833 34.424 27.075 30.18 24.62 60 49.8 87.61 77.31 4.48 5.01 10.2 9.39 12.73 15.79-5.8501-1-10.46-5.13-15.45-8.0299-31.56-21.16-62.07-43.85-93.06-65.83-64.78-46.12-129.89-92.31-200.16-129.84-23.529-12.566-47.435-24.409-71.827-35.194-12.46-5.5095-24.984-10.876-37.568-16.097-12.338-5.1198-25.109-9.5698-37.203-15.181-2.9784-1.382-6.054-2.5682-8.9925-4.0375-4.9301-2.39-10.04-4.65-14.17-8.33z" style="fill: inherit;"></path></g></svg>